<svg xmlns="http://www.w3.org/2000/svg" xmlns:xlink="http://www.w3.org/1999/xlink" width="500" zoomAndPan="magnify" viewBox="0 0 375 374.999991" height="500" preserveAspectRatio="xMidYMid meet" version="1.0"><defs><filter x="0%" y="0%" width="100%" height="100%" id="0e4b32327e"><feColorMatrix values="0 0 0 0 1 0 0 0 0 1 0 0 0 0 1 0 0 0 1 0" color-interpolation-filters="sRGB"/></filter><g/><mask id="b923e0b46a"><g filter="url(#0e4b32327e)"><rect x="-37.5" width="450" fill="#000000" y="-37.499999" height="449.999989" fill-opacity="0.8"/></g></mask><clipPath id="0a3d07d937"><path d="M 1.105469 2 L 191 2 L 191 168 L 1.105469 168 Z M 1.105469 2 " clip-rule="nonzero"/></clipPath><clipPath id="fce574f98d"><path d="M 1.105469 1.308594 L 191 1.308594 L 191 168.199219 L 1.105469 168.199219 Z M 1.105469 1.308594 " clip-rule="nonzero"/></clipPath><clipPath id="2040ee8f5e"><rect x="0" width="192" y="0" height="169"/></clipPath><clipPath id="084812fd56"><path d="M 40 42 L 322 42 L 322 316 L 40 316 Z M 40 42 " clip-rule="nonzero"/></clipPath><clipPath id="376dcbc8ae"><path d="M -1.46875 144.808594 L 133.269531 1.675781 L 375.972656 230.152344 L 241.230469 373.28125 Z M -1.46875 144.808594 " clip-rule="nonzero"/></clipPath><clipPath id="250370a743"><path d="M -1.46875 144.808594 L 133.269531 1.675781 L 375.972656 230.152344 L 241.230469 373.28125 Z M -1.46875 144.808594 " clip-rule="nonzero"/></clipPath><clipPath id="5d4d0abc20"><path d="M 39 42 L 237 42 L 237 239 L 39 239 Z M 39 42 " clip-rule="nonzero"/></clipPath><clipPath id="49b2b4f6da"><path d="M -1.46875 144.808594 L 133.269531 1.675781 L 375.972656 230.152344 L 241.230469 373.28125 Z M -1.46875 144.808594 " clip-rule="nonzero"/></clipPath><clipPath id="82dd6f95f3"><path d="M -1.46875 144.808594 L 133.269531 1.675781 L 375.972656 230.152344 L 241.230469 373.28125 Z M -1.46875 144.808594 " clip-rule="nonzero"/></clipPath><clipPath id="fbdaa7ec69"><path d="M 68 91 L 132 91 L 132 209 L 68 209 Z M 68 91 " clip-rule="nonzero"/></clipPath><clipPath id="af8a5cc574"><path d="M -1.46875 144.808594 L 133.269531 1.675781 L 375.972656 230.152344 L 241.230469 373.28125 Z M -1.46875 144.808594 " clip-rule="nonzero"/></clipPath><clipPath id="69f0793c57"><path d="M -1.46875 144.808594 L 133.269531 1.675781 L 375.972656 230.152344 L 241.230469 373.28125 Z M -1.46875 144.808594 " clip-rule="nonzero"/></clipPath><clipPath id="21cc6d9834"><path d="M 55 58 L 319 58 L 319 313 L 55 313 Z M 55 58 " clip-rule="nonzero"/></clipPath><clipPath id="4a8cebd631"><path d="M -1.46875 144.808594 L 133.269531 1.675781 L 375.972656 230.152344 L 241.230469 373.28125 Z M -1.46875 144.808594 " clip-rule="nonzero"/></clipPath><clipPath id="674240f2a2"><path d="M -1.46875 144.808594 L 133.269531 1.675781 L 375.972656 230.152344 L 241.230469 373.28125 Z M -1.46875 144.808594 " clip-rule="nonzero"/></clipPath></defs><g mask="url(#b923e0b46a)"><g transform="matrix(1, 0, 0, 1, 73, 43)"><g clip-path="url(#2040ee8f5e)"><g clip-path="url(#0a3d07d937)"><path fill="#ffa654" d="M 101.496094 155.957031 C 75.03125 161.378906 46.960938 165.75 35.398438 167.328125 C 32.402344 167.738281 28.132812 164.148438 27.332031 160.839844 C 20.9375 134.433594 6.03125 63.160156 1.902344 35.941406 C 1.386719 32.539062 4.675781 28.023438 7.660156 27.351562 L 60.578125 15.664062 C 61.003906 13.765625 61.246094 11.679688 61.628906 10.082031 C 62.425781 6.757812 66.691406 4.472656 69.726562 4.394531 C 76.148438 4.234375 94.699219 8.324219 94.699219 8.324219 C 94.699219 8.324219 111.988281 1.441406 119.011719 2.523438 C 126.035156 3.605469 129.117188 8.871094 130.890625 14.085938 L 178.257812 21.789062 C 187.886719 23.441406 190.582031 31.996094 189.914062 38.84375 C 187.972656 58.679688 174.226562 132.84375 167.578125 159.777344 C 166.8125 162.886719 162.78125 166.390625 159.941406 166.144531 C 147.167969 165.050781 125.671875 160.628906 101.496094 155.957031 Z M 101.496094 155.957031 C 75.03125 161.378906 46.960938 165.75 35.398438 167.328125 C 32.402344 167.738281 28.132812 164.148438 27.332031 160.839844 C 20.9375 134.433594 6.03125 63.160156 1.902344 35.941406 C 1.386719 32.539062 4.675781 28.023438 7.660156 27.351562 L 60.578125 15.664062 C 61.003906 13.765625 61.246094 11.679688 61.628906 10.082031 C 62.425781 6.757812 66.691406 4.472656 69.726562 4.394531 C 76.148438 4.234375 94.699219 8.324219 94.699219 8.324219 C 94.699219 8.324219 111.988281 1.441406 119.011719 2.523438 C 126.035156 3.605469 129.117188 8.871094 130.890625 14.085938 L 178.257812 21.789062 C 187.886719 23.441406 190.582031 31.996094 189.914062 38.84375 C 187.972656 58.679688 174.226562 132.84375 167.578125 159.777344 C 166.8125 162.886719 162.78125 166.390625 159.941406 166.144531 C 147.167969 165.050781 125.671875 160.628906 101.496094 155.957031 Z M 101.496094 155.957031 " fill-opacity="1" fill-rule="nonzero"/></g><path fill="#e6f8ff" d="M 93.601562 14.535156 L 66.199219 20.863281 C 66.597656 19.09375 66.976562 17.453125 67.332031 15.96875 C 68.070312 12.878906 70.792969 10.863281 73.574219 11.324219 Z M 174.480469 27.496094 L 125.292969 19.613281 C 125.289062 19.597656 125.285156 19.585938 125.28125 19.570312 C 123.460938 13.4375 121.605469 8.171875 112.734375 10.117188 L 13.160156 33.109375 C 10.40625 33.726562 8.644531 36.621094 9.121094 39.761719 C 12.933594 64.875 26.6875 130.648438 32.585938 155.019531 C 33.324219 158.070312 35.992188 160.109375 38.757812 159.730469 C 49.316406 158.289062 74.789062 153.703125 98.980469 148.757812 C 121.457031 153.101562 145.035156 157.1875 156.910156 158.207031 C 159.550781 158.433594 162.015625 156.460938 162.726562 153.566406 C 168.910156 128.527344 180.742188 59.417969 182.546875 40.976562 C 183.171875 34.605469 183.433594 29.03125 174.480469 27.496094 Z M 96.054688 86.046875 L 65.179688 94.3125 C 62.289062 93.210938 59.261719 89.132812 58.484375 85.589844 C 56.789062 77.851562 59.609375 69.179688 65.84375 64.296875 C 72.082031 59.417969 81.800781 59.285156 88.667969 63.226562 C 96.332031 67.628906 99.714844 77.503906 96.054688 86.046875 Z M 96.054688 86.046875 " fill-opacity="1" fill-rule="nonzero"/><path fill="#e387b7" d="M 115.59375 22.28125 C 115.214844 21.183594 114.226562 20.484375 113.195312 20.582031 C 100.222656 21.824219 23.101562 41.261719 23.101562 41.261719 C 20.75 41.792969 19.261719 44.265625 19.667969 46.941406 C 22.917969 68.339844 31.507812 105.765625 36.523438 126.488281 C 37.152344 129.085938 39.417969 130.820312 41.769531 130.5 C 57.769531 128.3125 113.054688 117.296875 131.667969 111.539062 C 133.820312 110.871094 135.128906 108.527344 134.765625 106.019531 C 131.648438 84.507812 121.359375 38.898438 115.59375 22.28125 Z M 96.054688 86.046875 L 65.179688 94.3125 C 62.289062 93.210938 59.261719 89.132812 58.484375 85.589844 C 56.789062 77.851562 59.609375 69.179688 65.84375 64.296875 C 72.082031 59.417969 81.800781 59.285156 88.667969 63.226562 C 96.332031 67.628906 99.714844 77.503906 96.054688 86.046875 Z M 170.96875 37.363281 C 165.441406 35.714844 146.921875 32.632812 128 29.714844 L 148.785156 128.050781 C 150.664062 128.277344 152.367188 128.457031 153.855469 128.585938 C 156.101562 128.777344 158.195312 127.101562 158.804688 124.640625 C 164.011719 103.535156 171.640625 57.40625 172.554688 39.84375 C 172.613281 38.683594 171.960938 37.660156 170.96875 37.363281 Z M 170.96875 37.363281 " fill-opacity="1" fill-rule="nonzero"/><path fill="#4681c2" d="M 30.160156 97.789062 C 33.5625 95.75 37.410156 96.945312 41.113281 98.375 C 44.8125 99.804688 48.515625 101.726562 52.476562 101.550781 C 56.878906 101.355469 60.746094 98.582031 63.894531 95.5 C 67.042969 92.414062 69.820312 88.878906 73.511719 86.46875 C 78.398438 83.273438 84.71875 82.367188 90.308594 84.0625 C 93.816406 85.125 97 87.136719 100.574219 87.957031 C 105.214844 89.019531 110.316406 87.875 114.058594 84.925781 C 118.953125 81.070312 122.199219 74.105469 128.410156 73.632812 L 134.828125 103.953125 C 134.828125 103.953125 137.023438 110.164062 130.179688 112.238281 C 123.335938 114.308594 47.421875 129.976562 47.421875 129.976562 C 47.421875 129.976562 39.675781 132.410156 37.335938 128.175781 C 34.992188 123.945312 30.160156 97.789062 30.160156 97.789062 Z M 30.160156 97.789062 C 33.5625 95.75 37.410156 96.945312 41.113281 98.375 C 44.8125 99.804688 48.515625 101.726562 52.476562 101.550781 C 56.878906 101.355469 60.746094 98.582031 63.894531 95.5 C 67.042969 92.414062 69.820312 88.878906 73.511719 86.46875 C 78.398438 83.273438 84.71875 82.367188 90.308594 84.0625 C 93.816406 85.125 97 87.136719 100.574219 87.957031 C 105.214844 89.019531 110.316406 87.875 114.058594 84.925781 C 118.953125 81.070312 122.199219 74.105469 128.410156 73.632812 L 134.828125 103.953125 C 134.828125 103.953125 137.023438 110.164062 130.179688 112.238281 C 123.335938 114.308594 47.421875 129.976562 47.421875 129.976562 C 47.421875 129.976562 39.675781 132.410156 37.335938 128.175781 C 34.992188 123.945312 30.160156 97.789062 30.160156 97.789062 Z M 30.160156 97.789062 " fill-opacity="1" fill-rule="nonzero"/><g clip-path="url(#fce574f98d)"><path fill="#000000" d="M 186.894531 25.679688 C 184.582031 23.007812 181.339844 21.59375 177.90625 21.035156 C 175.902344 20.707031 173.894531 20.382812 171.890625 20.058594 C 164.429688 18.84375 156.96875 17.632812 149.511719 16.417969 C 143.675781 15.46875 137.84375 14.523438 132.011719 13.574219 C 131.808594 13.539062 131.605469 13.507812 131.402344 13.472656 C 130.304688 10.394531 128.785156 7.375 126.3125 5.164062 C 123.863281 2.976562 120.589844 1.714844 117.300781 1.71875 C 114.398438 1.722656 111.476562 2.359375 108.675781 3.058594 C 105.660156 3.8125 102.6875 4.738281 99.75 5.746094 C 98.664062 6.117188 97.585938 6.5 96.511719 6.898438 C 95.96875 7.101562 95.285156 7.253906 94.773438 7.550781 C 94.820312 7.554688 94.859375 7.582031 94.871094 7.65625 C 94.871094 7.644531 94.765625 7.621094 94.667969 7.605469 C 94.519531 7.691406 94.539062 7.644531 94.613281 7.597656 C 94.554688 7.585938 94.503906 7.578125 94.492188 7.574219 C 93.765625 7.417969 93.035156 7.261719 92.304688 7.109375 C 86.578125 5.917969 80.816406 4.789062 75.007812 4.078125 C 71.96875 3.707031 68.921875 3.328125 66.03125 4.601562 C 64.292969 5.367188 62.648438 6.582031 61.65625 8.230469 C 60.46875 10.214844 60.417969 12.832031 59.984375 15.089844 C 56.226562 15.917969 52.472656 16.75 48.714844 17.578125 C 40.992188 19.285156 33.265625 20.992188 25.542969 22.699219 C 19.921875 23.9375 14.304688 25.179688 8.6875 26.421875 C 8.292969 26.507812 7.898438 26.585938 7.507812 26.679688 C 5.472656 27.183594 3.84375 28.789062 2.726562 30.496094 C 1.96875 31.652344 1.40625 32.972656 1.222656 34.351562 C 1.089844 35.371094 1.269531 36.34375 1.425781 37.347656 C 1.695312 39.074219 1.976562 40.792969 2.265625 42.515625 C 3.792969 51.597656 5.507812 60.648438 7.261719 69.691406 C 9.371094 80.574219 11.5625 91.441406 13.804688 102.296875 C 15.996094 112.882812 18.234375 123.464844 20.539062 134.027344 C 22.355469 142.355469 24.195312 150.675781 26.171875 158.964844 C 26.691406 161.144531 27.253906 163.054688 28.800781 164.769531 C 30.460938 166.617188 32.984375 168.324219 35.582031 167.996094 C 40.152344 167.410156 44.707031 166.683594 49.257812 165.976562 C 63.058594 163.828125 76.824219 161.460938 90.539062 158.828125 C 94.195312 158.128906 97.847656 157.402344 101.496094 156.65625 C 115.71875 159.410156 129.917969 162.332031 144.210938 164.707031 C 149.328125 165.554688 154.476562 166.375 159.648438 166.808594 C 162.226562 167.027344 164.636719 165.363281 166.261719 163.488281 C 167.753906 161.765625 168.277344 159.867188 168.789062 157.714844 C 170.71875 149.636719 172.421875 141.503906 174.085938 133.367188 C 176.183594 123.113281 178.179688 112.839844 180.109375 102.554688 C 182.035156 92.292969 183.894531 82.019531 185.65625 71.730469 C 187.070312 63.480469 188.445312 55.214844 189.601562 46.921875 C 189.988281 44.171875 190.378906 41.414062 190.621094 38.644531 C 191.019531 34.082031 189.945312 29.199219 186.894531 25.679688 Z M 188.800781 42.578125 C 187.882812 49.945312 186.683594 57.28125 185.464844 64.601562 C 183.835938 74.429688 182.09375 84.238281 180.292969 94.039062 C 178.40625 104.300781 176.453125 114.554688 174.414062 124.789062 C 172.648438 133.636719 170.835938 142.476562 168.859375 151.277344 C 168.472656 153.003906 168.078125 154.730469 167.671875 156.453125 C 167.234375 158.304688 166.949219 160.242188 165.828125 161.824219 C 164.988281 163.003906 163.859375 164.03125 162.589844 164.738281 C 161.453125 165.371094 160.421875 165.503906 159.152344 165.382812 C 156.777344 165.160156 154.40625 164.863281 152.046875 164.53125 C 138.96875 162.683594 126.003906 160.023438 113.046875 157.5 C 109.257812 156.761719 105.46875 156.023438 101.679688 155.289062 C 101.65625 155.285156 101.636719 155.292969 101.617188 155.289062 C 101.523438 155.269531 101.421875 155.269531 101.3125 155.289062 C 87.03125 158.214844 72.679688 160.789062 58.296875 163.140625 C 52.777344 164.042969 47.25 164.914062 41.714844 165.734375 C 39.703125 166.03125 37.691406 166.328125 35.675781 166.597656 C 33.027344 166.953125 30.507812 164.972656 29.066406 162.90625 C 27.953125 161.304688 27.675781 159.332031 27.234375 157.46875 C 26.8125 155.6875 26.398438 153.902344 25.988281 152.113281 C 25.027344 147.929688 24.089844 143.742188 23.164062 139.546875 C 20.933594 129.457031 18.773438 119.347656 16.65625 109.234375 C 14.402344 98.457031 12.203125 87.671875 10.070312 76.875 C 8.191406 67.367188 6.359375 57.851562 4.664062 48.308594 C 4.015625 44.664062 3.390625 41.011719 2.8125 37.351562 C 2.65625 36.355469 2.445312 35.363281 2.609375 34.355469 C 2.839844 32.953125 3.53125 31.621094 4.40625 30.511719 C 5.339844 29.328125 6.535156 28.320312 8.027344 27.976562 C 12.484375 26.957031 16.960938 26.003906 21.425781 25.019531 C 29.0625 23.332031 36.699219 21.644531 44.335938 19.957031 C 49.546875 18.808594 54.753906 17.65625 59.960938 16.507812 C 60.226562 16.449219 60.492188 16.390625 60.757812 16.332031 C 60.980469 16.28125 61.191406 16.070312 61.242188 15.847656 C 61.488281 14.71875 61.675781 13.578125 61.871094 12.4375 C 62.046875 11.410156 62.164062 10.289062 62.625 9.339844 C 63.375 7.785156 64.863281 6.671875 66.390625 5.949219 C 68.859375 4.777344 71.496094 5.0625 74.125 5.355469 C 79.761719 5.984375 85.359375 7.089844 90.914062 8.230469 C 92.089844 8.472656 93.316406 8.867188 94.511719 8.992188 C 94.914062 9.03125 95.21875 8.859375 95.589844 8.714844 C 96.371094 8.417969 97.152344 8.125 97.941406 7.84375 C 103.238281 5.929688 108.730469 4.09375 114.332031 3.324219 C 117.699219 2.863281 121 3.171875 123.929688 5.066406 C 127.167969 7.164062 129.007812 10.71875 130.226562 14.269531 C 130.296875 14.480469 130.46875 14.714844 130.707031 14.753906 C 134.847656 15.425781 138.984375 16.097656 143.125 16.769531 C 150.773438 18.015625 158.421875 19.257812 166.066406 20.5 C 170.285156 21.1875 174.582031 21.691406 178.761719 22.585938 C 183.882812 23.679688 187.53125 27.363281 188.789062 32.410156 C 189.632812 35.789062 189.222656 39.175781 188.800781 42.578125 Z M 130.96875 112.472656 C 132.59375 111.984375 133.980469 111.28125 134.8125 109.714844 C 135.699219 108.042969 135.511719 106.335938 135.238281 104.539062 C 134.773438 101.460938 134.25 98.390625 133.695312 95.324219 C 132.347656 87.855469 130.835938 80.414062 129.242188 72.996094 C 127.546875 65.105469 125.753906 57.238281 123.835938 49.402344 C 122.183594 42.628906 120.453125 35.875 118.492188 29.183594 C 117.796875 26.808594 117.070312 24.4375 116.261719 22.097656 C 115.671875 20.617188 114.449219 19.75 112.84375 19.925781 C 112.21875 19.996094 111.59375 20.082031 110.972656 20.175781 C 109.363281 20.417969 107.757812 20.714844 106.15625 21.019531 C 101.511719 21.90625 96.890625 22.910156 92.273438 23.933594 C 86.515625 25.214844 80.765625 26.542969 75.023438 27.890625 C 68.980469 29.308594 62.945312 30.753906 56.914062 32.214844 C 51.414062 33.546875 45.914062 34.890625 40.421875 36.242188 C 36.375 37.242188 32.328125 38.242188 28.285156 39.253906 C 26.515625 39.695312 24.742188 40.121094 22.972656 40.582031 C 21.949219 40.851562 21.03125 41.355469 20.332031 42.160156 C 18.980469 43.71875 18.773438 45.648438 19.078125 47.609375 C 19.625 51.175781 20.246094 54.730469 20.898438 58.277344 C 22.4375 66.660156 24.15625 75.011719 25.945312 83.34375 C 27.785156 91.910156 29.703125 100.457031 31.675781 108.996094 C 32.566406 112.832031 33.464844 116.664062 34.375 120.496094 C 34.777344 122.179688 35.179688 123.859375 35.585938 125.539062 C 36.03125 127.398438 36.621094 129.089844 38.246094 130.253906 C 40.421875 131.8125 43.136719 131.011719 45.570312 130.628906 C 48.027344 130.242188 50.480469 129.824219 52.929688 129.394531 C 59.351562 128.265625 65.753906 127.050781 72.148438 125.796875 C 79.527344 124.351562 86.890625 122.847656 94.246094 121.28125 C 101.214844 119.792969 108.175781 118.253906 115.105469 116.605469 C 120.421875 115.339844 125.738281 114.042969 130.96875 112.472656 Z M 24.707031 70.671875 C 23.1875 63.183594 21.734375 55.675781 20.546875 48.125 C 20.246094 46.230469 20.085938 44.25 21.617188 42.8125 C 22.136719 42.328125 22.746094 42.066406 23.421875 41.894531 C 24.035156 41.738281 24.648438 41.585938 25.265625 41.429688 C 33.042969 39.480469 40.828125 37.558594 48.617188 35.652344 C 60.226562 32.8125 71.851562 30.015625 83.5 27.335938 C 92.480469 25.269531 101.492188 23.085938 110.597656 21.625 C 111.996094 21.398438 114.21875 20.675781 114.929688 22.464844 C 116.78125 27.816406 118.269531 33.296875 119.714844 38.769531 C 121.640625 46.050781 123.410156 53.375 125.097656 60.714844 C 126.039062 64.808594 126.964844 68.914062 127.859375 73.023438 C 121.925781 73.890625 118.730469 79.808594 114.621094 83.542969 C 111.957031 85.96875 108.542969 87.433594 104.9375 87.632812 C 102.03125 87.792969 99.417969 86.972656 96.835938 85.929688 C 98.90625 80.757812 98.609375 74.847656 96 69.910156 C 93.3125 64.820312 88.398438 61.480469 82.824219 60.28125 C 77.117188 59.054688 70.679688 59.890625 65.894531 63.398438 C 61.148438 66.882812 58.222656 72.429688 57.492188 78.222656 C 57.089844 81.390625 57.242188 84.882812 58.5 87.859375 C 59.597656 90.453125 61.476562 93.078125 63.992188 94.492188 C 61.4375 97.054688 58.699219 99.339844 55.164062 100.390625 C 50.660156 101.730469 46.410156 99.765625 42.292969 98.105469 C 38.507812 96.574219 34.214844 95.042969 30.335938 96.925781 C 28.375 88.195312 26.484375 79.445312 24.707031 70.671875 Z M 64.996094 93.464844 C 62.683594 92.355469 60.933594 89.894531 59.90625 87.644531 C 58.792969 85.214844 58.570312 82.386719 58.726562 79.75 C 59.050781 74.300781 61.488281 68.9375 65.644531 65.351562 C 73.78125 58.332031 88.207031 60.199219 94.039062 69.28125 C 97.128906 74.097656 97.625 80.105469 95.566406 85.402344 C 94.933594 85.132812 94.300781 84.855469 93.660156 84.585938 C 90.175781 83.101562 86.574219 82.277344 82.769531 82.609375 C 79.171875 82.925781 75.648438 84.132812 72.675781 86.199219 C 69.832031 88.175781 67.464844 90.894531 64.996094 93.464844 Z M 30.652344 98.3125 C 34.308594 96.324219 38.519531 98.054688 42.066406 99.492188 C 45.644531 100.941406 49.351562 102.628906 53.316406 102.171875 C 58.28125 101.601562 61.925781 98.464844 65.308594 95.023438 C 65.566406 94.992188 65.742188 94.78125 65.800781 94.523438 C 67.46875 92.796875 69.089844 91.027344 70.78125 89.484375 C 73.625 86.894531 76.925781 85.042969 80.71875 84.289062 C 84.472656 83.539062 88.292969 83.957031 91.855469 85.328125 C 95.410156 86.699219 98.738281 88.613281 102.605469 88.96875 C 106.09375 89.289062 109.695312 88.460938 112.710938 86.683594 C 115.742188 84.890625 117.9375 82.09375 120.273438 79.523438 C 122.40625 77.175781 124.867188 74.761719 128.148438 74.355469 C 129.105469 78.769531 130.027344 83.191406 130.886719 87.625 C 125.0625 88.578125 121.886719 94.421875 117.816406 98.125 C 115.082031 100.609375 111.558594 102.085938 107.855469 102.222656 C 103.816406 102.375 100.339844 100.636719 96.714844 99.105469 C 93.1875 97.613281 89.523438 96.828125 85.683594 97.214844 C 82.078125 97.582031 78.585938 98.835938 75.628906 100.945312 C 69.550781 105.285156 65.566406 113.078125 57.957031 115.082031 C 53.4375 116.273438 49.164062 114.144531 45.058594 112.511719 C 41.453125 111.078125 37.355469 109.820312 33.667969 111.445312 C 32.648438 107.074219 31.640625 102.695312 30.652344 98.3125 Z M 62.558594 126.238281 C 57.089844 127.265625 51.613281 128.269531 46.117188 129.152344 C 45.132812 129.308594 44.148438 129.464844 43.164062 129.609375 C 41.828125 129.808594 40.558594 130.046875 39.320312 129.3125 C 37.585938 128.28125 37.214844 126.410156 36.777344 124.59375 C 36.367188 122.894531 35.960938 121.195312 35.554688 119.492188 C 35.027344 117.269531 34.511719 115.046875 33.992188 112.820312 C 37.421875 111.152344 41.347656 112.511719 44.691406 113.84375 C 48.328125 115.289062 52.066406 117.121094 56.09375 116.792969 C 63.867188 116.15625 68.523438 109.109375 73.761719 104.261719 C 76.585938 101.648438 79.847656 99.734375 83.636719 98.921875 C 87.363281 98.125 91.203125 98.464844 94.765625 99.796875 C 98.382812 101.152344 101.746094 103.144531 105.664062 103.535156 C 109.148438 103.882812 112.757812 103.085938 115.785156 101.332031 C 118.878906 99.539062 121.097656 96.707031 123.46875 94.101562 C 125.558594 91.804688 127.960938 89.441406 131.140625 88.960938 C 132.082031 93.871094 132.957031 98.792969 133.726562 103.730469 C 133.972656 105.304688 134.417969 106.992188 133.835938 108.535156 C 133.191406 110.253906 131.78125 110.792969 130.175781 111.265625 C 127.867188 111.949219 125.542969 112.574219 123.214844 113.175781 C 117.105469 114.757812 110.957031 116.183594 104.796875 117.5625 C 90.773438 120.703125 76.683594 123.582031 62.558594 126.238281 Z M 176.945312 27.363281 C 175.386719 26.878906 173.742188 26.679688 172.132812 26.421875 C 169.550781 26.007812 166.964844 25.59375 164.382812 25.179688 C 156.984375 23.996094 149.585938 22.808594 142.1875 21.625 C 136.886719 20.773438 131.589844 19.925781 126.289062 19.078125 C 126.152344 19.054688 126.019531 19.035156 125.882812 19.011719 C 125.34375 17.160156 124.707031 15.335938 123.8125 13.664062 C 122.925781 12.003906 121.644531 10.539062 119.898438 9.757812 C 117.582031 8.71875 114.96875 8.9375 112.550781 9.449219 C 110.292969 9.972656 108.039062 10.492188 105.785156 11.011719 C 101.714844 11.953125 97.640625 12.894531 93.570312 13.832031 C 90.105469 13.277344 86.644531 12.722656 83.179688 12.167969 C 80.867188 11.796875 78.558594 11.429688 76.246094 11.058594 C 74.96875 10.851562 73.535156 10.464844 72.234375 10.597656 C 70.308594 10.796875 68.632812 11.964844 67.597656 13.578125 C 66.996094 14.515625 66.71875 15.5625 66.460938 16.636719 C 66.175781 17.851562 65.898438 19.070312 65.625 20.285156 C 58.085938 22.027344 50.550781 23.765625 43.015625 25.507812 C 36.625 26.984375 30.234375 28.457031 23.84375 29.933594 C 20.425781 30.722656 17.007812 31.511719 13.59375 32.300781 C 11.203125 32.851562 9.324219 34.328125 8.625 36.78125 C 8.050781 38.804688 8.601562 40.929688 8.929688 42.953125 C 9.222656 44.765625 9.527344 46.574219 9.839844 48.382812 C 11.460938 57.753906 13.253906 67.09375 15.089844 76.425781 C 17.226562 87.28125 19.441406 98.128906 21.710938 108.960938 C 23.804688 118.949219 25.945312 128.929688 28.164062 138.894531 C 29.046875 142.855469 29.941406 146.8125 30.867188 150.761719 C 31.265625 152.46875 31.546875 154.292969 32.144531 155.941406 C 33.050781 158.433594 35.328125 160.449219 38.070312 160.464844 C 39.484375 160.472656 40.976562 160.109375 42.371094 159.898438 C 43.953125 159.65625 45.535156 159.40625 47.117188 159.144531 C 51.023438 158.507812 54.925781 157.832031 58.824219 157.140625 C 68.613281 155.402344 78.382812 153.558594 88.136719 151.636719 C 91.753906 150.921875 95.367188 150.195312 98.976562 149.457031 C 112.835938 152.132812 126.722656 154.695312 140.679688 156.820312 C 145.75 157.59375 150.839844 158.328125 155.949219 158.808594 C 157.132812 158.921875 158.246094 158.960938 159.378906 158.515625 C 160.546875 158.054688 161.519531 157.246094 162.25 156.234375 C 163.382812 154.671875 163.667969 152.648438 164.101562 150.804688 C 165.953125 142.867188 167.550781 134.867188 169.101562 126.863281 C 171.015625 117 172.816406 107.113281 174.554688 97.214844 C 176.253906 87.519531 177.890625 77.8125 179.429688 68.089844 C 180.609375 60.648438 181.757812 53.195312 182.699219 45.722656 C 183.082031 42.648438 183.558594 39.5 183.5 36.398438 C 183.464844 34.511719 183.152344 32.546875 182.109375 30.9375 C 180.921875 29.101562 178.992188 28 176.945312 27.363281 Z M 72.679688 11.949219 C 73.792969 11.925781 74.964844 12.242188 76.058594 12.417969 C 80.59375 13.144531 85.128906 13.871094 89.664062 14.597656 C 89.78125 14.617188 89.898438 14.636719 90.015625 14.652344 C 89.578125 14.753906 89.140625 14.855469 88.703125 14.957031 C 81.5 16.621094 74.296875 18.285156 67.09375 19.945312 C 67.757812 16.589844 68.5625 12.039062 72.679688 11.949219 Z M 70.851562 153.550781 C 62.570312 155.097656 54.273438 156.597656 45.957031 157.945312 C 44.460938 158.1875 42.964844 158.421875 41.46875 158.648438 C 39.941406 158.878906 38.199219 159.363281 36.699219 158.851562 C 35.332031 158.382812 34.253906 157.285156 33.652344 155.992188 C 33.238281 155.105469 33.074219 154.09375 32.847656 153.144531 C 32.449219 151.46875 32.054688 149.789062 31.667969 148.109375 C 29.621094 139.257812 27.683594 130.378906 25.777344 121.492188 C 23.507812 110.910156 21.300781 100.316406 19.148438 89.710938 C 17.109375 79.652344 15.121094 69.585938 13.242188 59.496094 C 12.460938 55.292969 11.695312 51.085938 10.972656 46.871094 C 10.675781 45.136719 10.386719 43.398438 10.113281 41.660156 C 9.753906 39.398438 9.351562 37.058594 11.015625 35.167969 C 11.992188 34.058594 13.230469 33.800781 14.558594 33.492188 C 15.992188 33.164062 17.425781 32.832031 18.859375 32.5 C 24.15625 31.277344 29.453125 30.054688 34.753906 28.832031 C 42.003906 27.15625 49.257812 25.480469 56.511719 23.808594 C 64.195312 22.03125 71.882812 20.257812 79.566406 18.484375 C 86.164062 16.960938 92.757812 15.4375 99.355469 13.914062 C 103.339844 12.992188 107.320312 12.074219 111.304688 11.15625 C 111.84375 11.03125 112.378906 10.90625 112.917969 10.78125 C 115.308594 10.273438 118.023438 10.0625 120.164062 11.46875 C 121.863281 12.585938 122.824219 14.523438 123.515625 16.371094 C 123.925781 17.464844 124.28125 18.582031 124.617188 19.703125 C 124.613281 19.828125 124.648438 19.941406 124.714844 20.039062 C 125.222656 21.757812 125.671875 23.496094 126.128906 25.21875 C 126.535156 26.757812 126.925781 28.300781 127.320312 29.847656 C 127.320312 29.9375 127.34375 30.023438 127.382812 30.101562 C 128.914062 36.144531 130.339844 42.210938 131.742188 48.285156 C 134.03125 58.191406 136.230469 68.117188 138.355469 78.0625 C 140.476562 87.988281 142.53125 97.933594 144.460938 107.898438 C 145.957031 115.621094 147.441406 123.359375 148.566406 131.148438 C 148.964844 133.890625 147.816406 136.445312 145.0625 137.285156 C 143.605469 137.730469 142.140625 138.148438 140.667969 138.550781 C 136.9375 139.574219 133.183594 140.503906 129.421875 141.398438 C 120 143.648438 110.527344 145.675781 101.042969 147.628906 C 90.996094 149.699219 80.933594 151.667969 70.851562 153.550781 Z M 148.070312 119.714844 C 146.394531 110.320312 144.53125 100.957031 142.605469 91.609375 C 140.472656 81.238281 138.246094 70.886719 135.941406 60.550781 C 133.914062 51.453125 131.828125 42.367188 129.605469 33.316406 C 129.378906 32.394531 129.144531 31.472656 128.914062 30.550781 C 140.507812 32.339844 152.121094 34.117188 163.628906 36.394531 C 165.421875 36.75 167.214844 37.117188 168.992188 37.550781 C 169.582031 37.695312 170.21875 37.808594 170.785156 38.03125 C 171.953125 38.480469 171.878906 39.667969 171.816406 40.707031 C 171.613281 44.011719 171.277344 47.308594 170.90625 50.601562 C 169.894531 59.589844 168.574219 68.546875 167.148438 77.480469 C 165.621094 87.066406 163.945312 96.632812 162.085938 106.160156 C 161.28125 110.28125 160.441406 114.394531 159.53125 118.492188 C 159.140625 120.246094 158.734375 122 158.3125 123.746094 C 158.023438 124.9375 157.65625 126.039062 156.722656 126.890625 C 155.734375 127.789062 154.605469 127.964844 153.320312 127.847656 C 152.003906 127.726562 150.6875 127.582031 149.371094 127.425781 C 148.960938 124.851562 148.527344 122.28125 148.070312 119.714844 Z M 181.746094 42.070312 C 181.050781 48.550781 180.0625 55.003906 179.078125 61.441406 C 177.667969 70.660156 176.148438 79.859375 174.574219 89.050781 C 172.875 98.960938 171.109375 108.859375 169.25 118.738281 C 167.632812 127.339844 165.960938 135.929688 164.105469 144.480469 C 163.742188 146.164062 163.367188 147.84375 162.980469 149.523438 C 162.609375 151.140625 162.378906 153 161.671875 154.507812 C 161.097656 155.734375 160.089844 156.789062 158.804688 157.261719 C 157.71875 157.660156 156.613281 157.496094 155.496094 157.382812 C 153.175781 157.15625 150.863281 156.875 148.550781 156.566406 C 135.53125 154.839844 122.589844 152.496094 109.679688 150.089844 C 107.296875 149.644531 104.914062 149.1875 102.53125 148.730469 C 107.910156 147.617188 113.285156 146.476562 118.648438 145.285156 C 126.734375 143.496094 134.824219 141.65625 142.792969 139.394531 C 144.496094 138.910156 146.445312 138.558594 147.828125 137.390625 C 149.933594 135.609375 150.222656 132.953125 149.839844 130.394531 C 149.765625 129.875 149.675781 129.355469 149.59375 128.835938 C 150.925781 128.992188 152.253906 129.140625 153.589844 129.253906 C 154.769531 129.351562 155.910156 129.128906 156.914062 128.472656 C 158.914062 127.175781 159.421875 125.058594 159.9375 122.890625 C 160.875 118.925781 161.726562 114.9375 162.539062 110.941406 C 164.511719 101.234375 166.253906 91.476562 167.855469 81.699219 C 169.40625 72.261719 170.832031 62.796875 171.972656 53.300781 C 172.410156 49.679688 172.804688 46.050781 173.078125 42.410156 C 173.207031 40.699219 173.65625 38.585938 172.21875 37.292969 C 171.144531 36.328125 169.117188 36.152344 167.757812 35.847656 C 156.433594 33.324219 144.886719 31.660156 133.429688 29.863281 C 131.804688 29.609375 130.179688 29.359375 128.554688 29.109375 C 128.074219 27.199219 127.582031 25.292969 127.070312 23.390625 C 126.8125 22.429688 126.558594 21.449219 126.292969 20.46875 C 129.636719 21.003906 132.980469 21.539062 136.324219 22.074219 C 143.65625 23.25 150.984375 24.425781 158.3125 25.597656 C 163.394531 26.414062 168.472656 27.226562 173.554688 28.042969 C 176.1875 28.464844 179.140625 29.128906 180.78125 31.433594 C 182.886719 34.394531 182.105469 38.707031 181.746094 42.070312 Z M 67.515625 140.960938 C 66.117188 142.226562 63.894531 142.597656 62.105469 142.089844 C 61.945312 142.046875 61.785156 141.984375 61.625 141.917969 C 61.828125 141.371094 61.964844 140.796875 62.050781 140.222656 C 62.234375 139.023438 62.550781 137.367188 61.316406 136.609375 C 59.761719 135.65625 58.40625 136.941406 58.140625 138.472656 C 57.898438 139.871094 58.492188 141.296875 59.535156 142.230469 C 59.617188 142.308594 59.710938 142.375 59.800781 142.445312 C 58.664062 144.019531 56.464844 144.46875 54.636719 143.949219 C 54.605469 143.941406 54.574219 143.925781 54.542969 143.914062 C 54.605469 143.699219 54.660156 143.484375 54.703125 143.257812 C 55 141.65625 54.679688 137.828125 52.128906 138.550781 C 51.289062 138.789062 50.601562 139.5 50.394531 140.339844 C 50.050781 141.75 50.972656 143.21875 52.007812 144.089844 C 52.242188 144.289062 52.5 144.460938 52.765625 144.621094 C 52.238281 145.558594 51.402344 146.300781 50.28125 146.558594 C 48.960938 146.863281 47.730469 146.476562 46.789062 145.699219 C 47.261719 144.457031 47.554688 143.140625 47.730469 141.996094 C 47.90625 140.867188 47.832031 139.53125 46.679688 138.945312 C 45.34375 138.269531 43.71875 139.265625 43.464844 140.660156 C 43.21875 142.015625 43.796875 143.828125 44.421875 145.019531 C 44.621094 145.398438 44.863281 145.746094 45.136719 146.0625 C 44.574219 147.257812 43.777344 148.296875 42.597656 148.691406 C 41.757812 148.972656 42.117188 150.308594 42.964844 150.023438 C 44.429688 149.535156 45.464844 148.382812 46.199219 147.003906 C 46.726562 147.363281 47.308594 147.640625 47.9375 147.816406 C 50.5 148.523438 52.824219 147.292969 54.003906 145.1875 C 56.164062 145.910156 58.753906 145.542969 60.378906 143.929688 C 60.617188 143.695312 60.820312 143.4375 61.003906 143.164062 C 63.414062 144.210938 66.582031 143.664062 68.492188 141.9375 C 69.152344 141.339844 68.171875 140.363281 67.515625 140.960938 Z M 45.199219 143.265625 C 44.957031 142.445312 44.25 140.382812 45.582031 140.136719 C 46.933594 139.886719 46.332031 142.101562 46.195312 142.703125 C 46.078125 143.242188 45.929688 143.851562 45.738281 144.472656 C 45.511719 144.097656 45.328125 143.691406 45.199219 143.265625 Z M 52.269531 142.378906 C 51.789062 141.726562 51.363281 140.628906 52.15625 140.058594 C 53.148438 139.335938 53.355469 140.945312 53.410156 141.628906 C 53.453125 142.1875 53.40625 142.765625 53.269531 143.316406 C 52.886719 143.058594 52.542969 142.75 52.269531 142.378906 Z M 59.632812 138.226562 C 59.882812 137.671875 60.570312 137.410156 60.816406 138.125 C 60.960938 138.53125 60.804688 139.167969 60.753906 139.589844 C 60.691406 140.113281 60.59375 140.640625 60.433594 141.148438 C 59.621094 140.394531 59.136719 139.332031 59.632812 138.226562 Z M 71.464844 139.371094 C 70.574219 139.371094 70.574219 140.753906 71.464844 140.753906 C 72.351562 140.753906 72.355469 139.371094 71.464844 139.371094 Z M 94.699219 7.585938 C 94.722656 7.574219 94.75 7.5625 94.773438 7.550781 C 94.722656 7.542969 94.660156 7.566406 94.613281 7.597656 C 94.632812 7.597656 94.648438 7.601562 94.667969 7.605469 C 94.679688 7.597656 94.683594 7.597656 94.699219 7.585938 Z M 94.699219 7.585938 " fill-opacity="1" fill-rule="nonzero"/></g></g></g></g><g clip-path="url(#084812fd56)"><g clip-path="url(#376dcbc8ae)"><g clip-path="url(#250370a743)"><path fill="#34495e" d="M 66.519531 73.628906 C 29.597656 112.847656 31.46875 174.789062 70.6875 211.710938 C 88.5625 228.535156 111.914062 237.964844 136.441406 238.257812 C 160.820312 238.546875 184.246094 229.828125 202.40625 213.707031 L 202.898438 213.273438 L 203.414062 213.761719 C 203.234375 213.921875 203.0625 214.085938 202.882812 214.242188 L 208.90625 219.914062 C 209.085938 219.753906 209.257812 219.589844 209.4375 219.429688 L 221.304688 230.601562 L 220.949219 230.976562 C 220.90625 231.027344 220.867188 231.082031 220.820312 231.128906 C 218.160156 234.089844 217.964844 238.46875 220.234375 241.644531 L 220.738281 241.109375 C 220.765625 241.148438 220.789062 241.1875 220.816406 241.226562 L 221.160156 241.707031 L 220.652344 242.242188 C 220.519531 242.386719 220.523438 242.613281 220.667969 242.746094 C 220.804688 242.875 221.015625 242.875 221.152344 242.746094 L 221.675781 242.257812 L 222.136719 242.753906 L 221.695312 243.222656 C 221.675781 243.238281 221.65625 243.253906 221.640625 243.269531 L 284.640625 311.0625 C 284.6875 310.945312 284.753906 310.832031 284.847656 310.734375 L 285.082031 310.488281 L 285.472656 310.910156 L 285.300781 311.332031 C 285.242188 311.472656 285.277344 311.628906 285.382812 311.730469 C 285.476562 311.816406 285.609375 311.84375 285.738281 311.804688 L 286.171875 311.664062 L 286.542969 312.0625 L 286.410156 312.203125 C 286.28125 312.339844 286.125 312.429688 285.960938 312.484375 L 286.304688 312.855469 C 289.621094 316.425781 295.269531 316.441406 298.609375 312.894531 L 319.351562 290.863281 C 322.691406 287.3125 322.332031 281.675781 318.570312 278.582031 L 318.179688 278.261719 C 318.132812 278.429688 318.054688 278.589844 317.925781 278.726562 L 317.792969 278.867188 L 317.371094 278.523438 L 317.484375 278.082031 C 317.519531 277.949219 317.484375 277.820312 317.390625 277.730469 C 317.28125 277.628906 317.125 277.605469 316.988281 277.671875 L 316.578125 277.871094 L 316.132812 277.503906 L 316.363281 277.253906 C 316.457031 277.15625 316.566406 277.082031 316.679688 277.027344 L 245.207031 218.234375 C 245.191406 218.25 245.179688 218.273438 245.164062 218.289062 L 244.722656 218.757812 L 244.203125 218.332031 L 244.65625 217.777344 C 244.777344 217.632812 244.761719 217.421875 244.628906 217.292969 C 244.484375 217.160156 244.257812 217.167969 244.125 217.308594 L 243.617188 217.847656 L 243.121094 217.535156 C 243.082031 217.507812 243.039062 217.488281 242.996094 217.464844 L 243.5 216.929688 C 240.195312 214.855469 235.835938 215.316406 233.042969 218.148438 C 232.996094 218.195312 232.945312 218.238281 232.898438 218.285156 L 232.546875 218.660156 L 220.679688 207.492188 C 220.828125 207.304688 220.980469 207.117188 221.125 206.929688 L 215.101562 201.261719 C 214.957031 201.449219 214.804688 201.632812 214.65625 201.820312 L 214.136719 201.332031 L 214.542969 200.820312 C 229.539062 181.71875 236.828125 157.808594 235.066406 133.492188 C 233.292969 109.027344 222.472656 86.285156 204.597656 69.460938 C 165.378906 32.539062 103.4375 34.410156 66.519531 73.628906 Z M 193.910156 193.554688 C 164.703125 224.582031 115.699219 226.0625 84.671875 196.851562 C 53.644531 167.644531 52.167969 118.640625 81.375 87.613281 C 110.582031 56.589844 159.585938 55.109375 190.613281 84.316406 C 221.640625 113.523438 223.121094 162.527344 193.910156 193.554688 Z M 127.488281 200.21875 C 129.625 200.582031 131.070312 202.613281 130.710938 204.75 C 130.578125 205.519531 130.230469 206.222656 129.699219 206.789062 C 128.792969 207.75 127.476562 208.191406 126.175781 207.972656 C 119.570312 206.855469 113.1875 204.777344 107.207031 201.800781 C 105.265625 200.835938 104.472656 198.472656 105.4375 196.53125 C 105.609375 196.183594 105.832031 195.863281 106.09375 195.585938 C 107.273438 194.335938 109.167969 193.996094 110.710938 194.761719 C 115.996094 197.394531 121.644531 199.230469 127.488281 200.21875 Z M 93.433594 93.566406 C 95.011719 95.054688 95.085938 97.546875 93.601562 99.125 C 85.769531 107.445312 80.476562 117.738281 78.289062 128.890625 C 74.261719 149.449219 80.949219 170.285156 96.183594 184.625 C 97.761719 186.113281 97.835938 188.605469 96.351562 190.183594 C 94.863281 191.761719 92.371094 191.835938 90.792969 190.351562 C 73.582031 174.148438 66.019531 150.605469 70.574219 127.378906 C 73.042969 114.769531 79.027344 103.132812 87.875 93.734375 C 89.363281 92.15625 91.855469 92.082031 93.433594 93.566406 Z M 93.433594 93.566406 " fill-opacity="1" fill-rule="nonzero"/></g></g></g><g clip-path="url(#5d4d0abc20)"><g clip-path="url(#49b2b4f6da)"><g clip-path="url(#82dd6f95f3)"><path fill="#293e52" d="M 65.996094 73.140625 C 28.75 112.707031 30.628906 174.980469 70.195312 212.230469 C 107.578125 247.417969 165.214844 247.679688 202.882812 214.242188 C 205.085938 212.285156 207.226562 210.21875 209.289062 208.03125 C 211.347656 205.84375 213.28125 203.582031 215.101562 201.261719 C 246.207031 161.644531 242.46875 104.128906 205.089844 68.9375 C 165.519531 31.691406 103.246094 33.570312 65.996094 73.140625 Z M 197.59375 197.019531 C 166.425781 230.128906 114.316406 231.703125 81.207031 200.535156 C 48.097656 169.367188 46.523438 117.257812 77.695312 84.148438 C 108.863281 51.039062 160.96875 49.464844 194.078125 80.636719 C 227.1875 111.804688 228.761719 163.910156 197.59375 197.019531 Z M 197.59375 197.019531 " fill-opacity="1" fill-rule="nonzero"/></g></g></g><g clip-path="url(#fbdaa7ec69)"><g clip-path="url(#af8a5cc574)"><g clip-path="url(#69f0793c57)"><path fill="#a3ddf6" d="M 127.609375 199.515625 C 130.136719 199.941406 131.84375 202.339844 131.414062 204.871094 C 131.253906 205.808594 130.824219 206.632812 130.21875 207.277344 C 129.1875 208.371094 127.648438 208.945312 126.058594 208.675781 C 119.378906 207.546875 112.929688 205.449219 106.886719 202.441406 C 104.589844 201.300781 103.65625 198.507812 104.796875 196.210938 C 105.941406 193.914062 108.730469 192.980469 111.027344 194.121094 C 116.253906 196.722656 121.832031 198.535156 127.609375 199.515625 Z M 87.355469 93.246094 C 78.414062 102.742188 72.367188 114.5 69.871094 127.242188 C 65.273438 150.710938 72.910156 174.5 90.304688 190.871094 C 92.171875 192.632812 95.113281 192.542969 96.871094 190.671875 C 98.628906 188.804688 98.542969 185.863281 96.671875 184.105469 C 81.621094 169.933594 75.007812 149.34375 78.992188 129.027344 C 81.152344 118.007812 86.382812 107.835938 94.121094 99.613281 C 95.882812 97.746094 95.792969 94.804688 93.921875 93.046875 C 92.054688 91.289062 89.113281 91.375 87.355469 93.246094 Z M 87.355469 93.246094 " fill-opacity="1" fill-rule="nonzero"/></g></g></g><g clip-path="url(#21cc6d9834)"><g clip-path="url(#4a8cebd631)"><g clip-path="url(#674240f2a2)"><path fill="#4681c2" d="M 225.757812 235.777344 L 237.976562 222.796875 L 243.5 216.929688 L 243.601562 216.820312 C 244.007812 216.390625 244.6875 216.367188 245.117188 216.773438 C 245.53125 217.164062 245.5625 217.800781 245.207031 218.234375 C 245.191406 218.25 245.179688 218.273438 245.164062 218.289062 L 239.539062 224.265625 L 227.320312 237.246094 L 221.695312 243.222656 C 221.675781 243.238281 221.65625 243.253906 221.640625 243.269531 C 221.230469 243.648438 220.59375 243.65625 220.179688 243.269531 C 219.746094 242.863281 219.726562 242.183594 220.132812 241.753906 L 220.234375 241.644531 Z M 316.679688 277.027344 C 316.566406 277.082031 316.457031 277.15625 316.363281 277.253906 L 284.847656 310.734375 C 284.753906 310.832031 284.6875 310.945312 284.640625 311.0625 C 284.476562 311.460938 284.5625 311.9375 284.894531 312.25 C 285.1875 312.527344 285.597656 312.601562 285.960938 312.484375 C 286.125 312.429688 286.28125 312.339844 286.410156 312.203125 L 317.925781 278.726562 C 318.054688 278.589844 318.132812 278.429688 318.179688 278.261719 C 318.273438 277.894531 318.175781 277.488281 317.878906 277.210938 C 317.546875 276.894531 317.066406 276.839844 316.679688 277.027344 Z M 194.078125 80.636719 C 227.1875 111.804688 228.761719 163.910156 197.59375 197.019531 C 166.425781 230.128906 114.316406 231.703125 81.207031 200.535156 C 48.097656 169.367188 46.523438 117.257812 77.695312 84.148438 C 108.863281 51.039062 160.96875 49.464844 194.078125 80.636719 Z M 190.125 84.835938 C 159.335938 55.851562 110.878906 57.316406 81.894531 88.105469 C 52.910156 118.894531 54.375 167.347656 85.164062 196.332031 C 115.953125 225.316406 164.40625 223.851562 193.390625 193.066406 C 222.375 162.277344 220.910156 113.820312 190.125 84.835938 Z M 233.042969 218.148438 L 221.125 206.929688 C 219.304688 209.25 217.371094 211.511719 215.3125 213.699219 C 213.25 215.890625 211.109375 217.957031 208.90625 219.914062 L 220.820312 231.128906 C 220.867188 231.082031 220.90625 231.027344 220.949219 230.976562 L 232.898438 218.285156 C 232.945312 218.238281 232.996094 218.195312 233.042969 218.148438 Z M 233.042969 218.148438 " fill-opacity="1" fill-rule="nonzero"/></g></g></g><g fill="#2c3e50" fill-opacity="1"><g transform="translate(252.239021, 202.499987)"><g><path d="M 9.359375 0 L 3.71875 0 L 3.71875 -28.5625 L 9.359375 -28.5625 Z M 9.359375 0 "/></g></g></g><g fill="#2c3e50" fill-opacity="1"><g transform="translate(265.32368, 202.499987)"><g><path d="M 14.75 -28.5625 C 16.789062 -28.5625 18.535156 -28.1875 19.984375 -27.4375 C 21.441406 -26.6875 22.539062 -25.632812 23.28125 -24.28125 C 24.019531 -22.9375 24.390625 -21.375 24.390625 -19.59375 C 24.390625 -17.8125 24.019531 -16.25 23.28125 -14.90625 C 22.539062 -13.5625 21.441406 -12.515625 19.984375 -11.765625 C 18.535156 -11.015625 16.789062 -10.640625 14.75 -10.640625 L 9.359375 -10.640625 L 9.359375 0 L 3.71875 0 L 3.71875 -28.5625 Z M 14 -15.125 C 17.144531 -15.125 18.71875 -16.613281 18.71875 -19.59375 C 18.71875 -22.582031 17.144531 -24.078125 14 -24.078125 L 9.359375 -24.078125 L 9.359375 -15.125 Z M 14 -15.125 "/></g></g></g><g fill="#2c3e50" fill-opacity="1"><g transform="translate(291.41488, 202.499987)"><g><path d="M 9.359375 -28.5625 L 9.359375 -4.734375 L 22.1875 -4.734375 L 22.1875 0 L 3.71875 0 L 3.71875 -28.5625 Z M 9.359375 -28.5625 "/></g></g></g></svg>